<?xml version="1.0" encoding="utf-8"?>
<!-- Generator: Adobe Illustrator 25.4.1, SVG Export Plug-In . SVG Version: 6.00 Build 0)  -->
<svg version="1.0" id="레이어_1" xmlns="http://www.w3.org/2000/svg" xmlns:xlink="http://www.w3.org/1999/xlink" x="0px"
	 y="0px" viewBox="0 0 226.8 165.5" enable-background="new 0 0 226.8 165.5" xml:space="preserve">
<g>
	<g>
		<path fill="#0C0C0C" d="M142.1,124.3l-8,3.4v6.7h-5.6v7.3h5.5v14.1c-0.4,5,3.3,9.3,8.3,9.7c0.4,0,0.9,0,1.3,0
			c1.6,0.1,3.1-0.2,4.6-0.7v-7.1c-0.8,0.2-1.7,0.2-2.5,0.2c-2.2,0-3.6-0.9-3.6-3.5v-12.7h6.1v-7.3h-6.1V124.3z"/>
		<polygon fill="#0C0C0C" points="53.9,134.5 48.3,153.9 41.7,134.5 33.7,134.5 27.1,153.9 21.5,134.5 12.9,134.5 22.5,164.8 
			31.2,164.8 37.7,144.4 44.2,164.8 52.9,164.8 62.5,134.5 		"/>
		<path fill="#0C0C0C" d="M206.1,124.3v11.9c-2.1-1.4-4.5-2.2-7-2.4h-0.5h-0.9c-0.4,0-0.9,0-1.3,0c-6.8,0.5-12.2,5.7-13.1,12.4
			c-0.2,1-0.3,2-0.3,3.1c0,0.1,0,0.2,0,0.3c0,0.3,0,0.5,0,0.8c0,0.4,0,0.9,0,1.3c0.9,7.8,6.3,13.8,14.6,13.8c3,0,6-0.9,8.5-2.6v1.8
			h0.3h7.6v-43.5L206.1,124.3z M198.6,158.2L198.6,158.2c-4.7-0.4-8.3-4.5-7.9-9.2c0.3-4.2,3.7-7.6,7.9-7.9c4.3,0,7.6,3,7.6,8.4
			C206.2,154.9,202.9,158.2,198.6,158.2z"/>
		<path fill="#0C0C0C" d="M180,146.2c-1.2-8-8.6-13.5-16.6-12.3c-6.4,0.9-11.4,5.9-12.3,12.3c-0.2,1.1-0.3,2.3-0.3,3.4
			c0,0.7,0,1.4,0.1,2.1c0.8,7.8,6.3,13.8,14.6,13.8c6,0.1,11.5-3.7,13.5-9.4l-7.2-1.5c-1,2.6-3.6,4.3-6.3,4.3
			c-3.9,0-6.5-3.1-7.2-7.2h21.8c0-0.7,0.1-1.4,0.1-2.1C180.2,148.5,180.1,147.3,180,146.2L180,146.2z M158.7,146.2
			c1.2-3.8,5.1-5.9,8.9-4.7c2.3,0.7,4,2.5,4.7,4.7H158.7z"/>
		<path fill="#0C0C0C" d="M85.7,136.5c-1.1-0.8-2.3-1.4-3.6-1.8c-1.3-0.5-2.7-0.8-4-0.9h-0.9c-8.4,0.3-15,7.3-14.8,15.7
			c0,0.2,0,0.4,0,0.6v0.3c0.2,8,6.5,14.6,14.5,15H78c2.8-0.2,5.4-1.2,7.6-2.9v2.1h7.9v-30.2h-7.9L85.7,136.5z M78.1,158.2
			c-4.7-0.2-8.4-4.3-8.1-9c0.2-4.4,3.7-7.9,8.1-8.1c4.3,0,7.6,3,7.6,8.4S82.4,158.2,78.1,158.2z"/>
		<path fill="#0C0C0C" d="M115.1,133.7c-3.4-0.1-6.7,1.5-8.6,4.4v-3.6h-8.2v30.2h8.2v-17.4c-0.3-3.1,1.9-5.9,5.1-6.2
			c0.2,0,0.4,0,0.6,0c2.9-0.2,5.5,2.1,5.6,5c0,0.3,0,0.7,0,1v17.7h8.2v-19.1C126.1,139,122.7,133.7,115.1,133.7z"/>
	</g>
	<g>
		<rect x="58.3" y="14.9" fill="#3A68F8" width="42.5" height="61.8"/>
		<rect x="125.9" y="14.9" fill="#0149DA" width="42.5" height="61.8"/>
		<path fill="#24DFA5" d="M79.6,14.9C71.2,5.7,59.2,0,45.8,0C20.5,0,0,20.5,0,45.8s20.5,45.8,45.8,45.8c13.4,0,25.4-5.7,33.8-14.9
			c-7.5-8.2-12-19-12-30.9S72.1,23,79.6,14.9z"/>
		<path fill="none" d="M135.2,46.1v-0.6c0,0.1,0,0.2,0,0.3S135.2,46,135.2,46.1z"/>
		<path fill="#2C5BF0" d="M181,0c-13.4,0-25.4,5.7-33.8,14.9c7.5,8.2,12,19,12,30.9s-4.6,22.8-12,30.9c8.4,9.1,20.4,14.9,33.8,14.9
			c25.3,0,45.8-20.5,45.8-45.8S206.3,0,181,0z"/>
		<path fill="#438AFF" d="M135.2,45.8c0-0.1,0-0.2,0-0.3c0.1-11.8,4.6-22.6,12-30.6C138.8,5.7,126.8,0,113.4,0S88,5.7,79.6,14.9
			c7.5,8.2,12,19,12,30.9s-4.6,22.8-12,30.9c8.4,9.1,20.4,14.9,33.8,14.9s25.4-5.7,33.8-14.9c-7.4-8.1-11.9-18.8-12-30.6
			C135.2,46,135.2,45.9,135.2,45.8z"/>
	</g>
</g>
</svg>
